<?xml version="1.0" standalone="no"?>
<!DOCTYPE svg PUBLIC "-//W3C//DTD SVG 20010904//EN"
 "http://www.w3.org/TR/2001/REC-SVG-20010904/DTD/svg10.dtd">
<svg version="1.0" xmlns="http://www.w3.org/2000/svg"
 width="1053.000000pt" height="1280.000000pt" viewBox="0 0 1053.000000 1280.000000"
 preserveAspectRatio="xMidYMid meet">

<g transform="translate(0.000000,1280.000000) scale(0.100000,-0.100000)"
fill="#000000" stroke="none">
<path d="M5155 8784 c-109 -31 -162 -48 -200 -67 -39 -20 -365 -117 -390 -117
-7 0 -41 -9 -75 -20 -106 -34 -255 -127 -355 -220 -33 -31 -76 -67 -95 -80
-125 -84 -218 -212 -294 -402 -44 -108 -54 -159 -70 -359 -11 -137 -11 -191 0
-303 12 -126 16 -143 52 -219 22 -45 56 -103 76 -129 20 -26 51 -83 70 -126
36 -87 99 -187 121 -196 8 -3 15 -1 15 5 0 6 4 8 8 5 4 -2 8 4 9 14 2 22 33
69 46 70 5 0 27 -19 50 -42 33 -33 43 -38 45 -25 6 33 45 17 56 -23 12 -42 29
-70 42 -70 13 0 42 -13 109 -50 22 -12 48 -24 58 -27 9 -3 17 -9 17 -14 0 -5
7 -9 16 -9 9 0 29 -9 45 -21 16 -11 35 -19 42 -16 6 2 18 -3 26 -10 11 -12 16
-12 30 1 21 19 153 25 159 7 6 -17 23 -13 41 8 14 16 25 18 83 12 47 -5 69 -4
72 4 4 13 101 14 113 2 11 -12 31 -8 49 10 13 13 19 14 22 5 5 -15 29 -16 34
-1 2 7 17 7 48 0 32 -7 48 -7 58 1 14 13 32 -4 32 -30 0 -7 5 -10 10 -7 6 3 7
17 4 31 -4 14 -2 24 5 24 6 0 11 -4 11 -10 0 -14 37 -13 42 1 2 6 33 13 68 15
65 4 87 10 167 46 24 10 53 16 66 13 14 -4 46 4 81 19 31 14 80 28 107 32 34
5 53 13 60 25 6 12 21 19 39 19 16 0 32 5 36 11 3 6 22 17 40 25 19 8 34 21
34 29 0 8 4 15 9 15 5 0 13 9 16 20 3 11 11 20 16 20 5 0 19 9 30 19 25 23 77
32 104 18 24 -12 97 -68 106 -81 4 -5 12 -5 18 -2 6 4 18 0 27 -8 8 -9 22 -16
29 -16 7 0 22 -11 33 -25 11 -13 22 -22 25 -18 4 3 10 -3 13 -13 4 -10 13 -26
19 -34 7 -8 15 -33 18 -55 15 -121 31 -191 52 -238 14 -28 25 -59 25 -68 0
-21 30 -33 44 -19 5 5 10 39 11 74 0 36 4 69 9 73 10 10 49 -38 72 -90 15 -33
16 -44 5 -80 -7 -23 -15 -60 -18 -81 -5 -38 -4 -39 11 -23 10 9 21 17 26 17
15 0 38 65 34 95 -4 28 0 32 44 53 48 22 50 24 72 98 12 41 23 98 24 126 1 43
-3 53 -27 74 -22 18 -40 24 -78 24 -36 0 -51 4 -56 15 -4 13 -8 12 -22 -7 -15
-22 -17 -26 -20 -48 0 -5 -7 -10 -15 -10 -8 0 -17 -8 -19 -17 -4 -14 -5 -13
-6 4 0 12 15 49 34 82 19 32 35 64 35 69 0 5 7 12 15 16 8 3 15 14 15 24 0 23
59 156 71 160 20 8 8 32 -16 32 -14 0 -25 5 -25 10 0 9 22 70 95 255 44 112
46 135 47 448 0 340 -3 359 -74 507 -56 117 -179 238 -367 362 -161 107 -212
133 -351 183 -94 34 -146 55 -355 142 -50 22 -69 25 -122 20 -34 -4 -83 -15
-108 -27 -56 -26 -140 -33 -156 -14 -6 8 -19 29 -28 47 -15 29 -20 32 -63 32
-25 0 -50 4 -54 8 -12 12 -105 7 -159 -9z m1660 -2433 c8 -20 -21 -41 -57 -41
-23 0 -28 4 -28 24 0 14 4 36 10 51 l10 26 29 -22 c17 -12 33 -29 36 -38z"/>
<path d="M6965 6733 c-59 -31 -59 -51 0 -165 41 -80 45 -93 46 -170 1 -46 -1
-101 -5 -123 -5 -31 -5 -36 4 -23 15 25 42 323 34 383 -7 55 -29 115 -41 115
-4 -1 -21 -8 -38 -17z"/>
<path d="M6815 6590 c-3 -5 1 -10 9 -10 9 0 16 5 16 10 0 6 -4 10 -9 10 -6 0
-13 -4 -16 -10z"/>
<path d="M5901 6352 c-16 -11 -26 -13 -28 -5 -3 8 -15 8 -41 1 -70 -18 -147
-41 -200 -59 -29 -11 -61 -19 -72 -19 -10 0 -20 -4 -22 -8 -1 -4 -25 -15 -53
-24 -137 -45 -144 -51 -145 -120 0 -44 -2 -48 -37 -65 -21 -9 -44 -25 -51 -35
-7 -10 -26 -18 -42 -18 -16 0 -35 -7 -44 -15 -8 -8 -19 -15 -25 -15 -6 0 -11
7 -11 15 0 8 -9 15 -20 15 -12 0 -17 5 -14 14 3 8 1 17 -4 20 -12 7 -112 -16
-112 -26 0 -12 -38 -10 -45 2 -3 6 -17 10 -31 10 -25 0 -99 43 -99 58 0 4 -9
28 -20 53 -20 50 -59 75 -97 65 -12 -3 -28 0 -36 6 -8 7 -23 13 -34 15 -12 2
-37 12 -57 22 -71 38 -154 71 -177 71 -12 0 -25 4 -28 9 -3 4 -23 11 -45 14
-30 4 -52 -1 -87 -19 -26 -13 -53 -24 -60 -24 -19 0 -54 -49 -54 -76 0 -25 34
-54 64 -54 22 0 81 -17 109 -32 11 -5 36 -10 58 -10 22 0 42 -4 45 -9 3 -5 9
-7 14 -4 4 3 32 -1 62 -9 29 -8 45 -15 36 -15 -10 -1 -18 -5 -18 -11 0 -5 8
-13 18 -19 12 -7 -5 -10 -65 -10 -61 0 -83 4 -87 15 -7 19 -35 18 -42 -1 -4
-10 -13 -13 -26 -9 -13 4 -27 -3 -45 -20 -14 -14 -34 -26 -44 -26 -10 0 -21
-5 -24 -10 -4 -6 -10 -8 -15 -5 -5 3 -11 1 -14 -4 -4 -5 -2 -12 3 -15 5 -3 7
-14 4 -24 -2 -10 9 -36 26 -60 34 -47 63 -54 89 -22 10 10 29 22 44 26 24 5
30 1 49 -30 11 -20 27 -36 35 -36 8 0 14 -4 14 -9 0 -13 53 -23 122 -25 31 0
60 -4 64 -8 12 -12 -17 -38 -43 -38 -13 0 -34 -5 -46 -12 -12 -7 -40 -13 -62
-15 -34 -2 -42 1 -50 20 -6 12 -20 23 -33 25 -13 2 -26 10 -29 18 -10 26 -24
15 -17 -13 9 -35 35 -72 52 -73 6 0 12 -4 12 -9 0 -5 15 -16 33 -25 43 -22 67
-38 89 -58 10 -10 22 -18 28 -18 6 0 10 -7 10 -16 0 -12 7 -14 28 -10 15 3 47
8 72 11 25 4 55 13 67 21 17 10 23 11 27 1 3 -9 9 -7 18 5 18 21 67 18 90 -4
10 -10 14 -18 8 -18 -5 0 -10 -9 -10 -20 0 -11 4 -20 9 -20 5 0 17 -7 26 -16
15 -15 15 -14 10 12 -5 22 -4 25 4 14 7 -10 11 -11 11 -2 0 8 8 10 25 6 19 -5
30 -1 44 15 10 11 28 21 39 21 12 0 25 7 30 16 8 14 12 14 32 3 18 -11 24 -11
27 -1 3 7 12 19 20 28 24 23 20 126 -6 170 -30 50 -26 67 19 94 22 14 40 30
40 36 0 6 6 17 13 23 11 8 18 6 32 -9 13 -14 22 -17 30 -10 9 8 21 3 41 -17
16 -16 50 -46 77 -67 26 -22 47 -44 47 -50 0 -17 81 -64 125 -73 11 -2 45 -12
75 -23 94 -33 174 -28 275 15 17 8 42 16 58 19 17 4 27 13 27 24 0 10 5 23 12
30 17 17 2 27 -24 16 -45 -19 -248 1 -263 26 -3 4 32 11 77 15 45 4 96 14 115
21 18 8 34 13 35 12 2 -1 22 11 45 25 31 20 50 25 71 21 19 -4 53 2 89 15 33
12 66 21 75 21 31 0 68 40 68 74 0 30 -3 34 -35 39 -19 3 -51 1 -71 -5 -21 -5
-60 -7 -88 -4 -124 14 -187 18 -272 17 -85 -1 -92 0 -97 20 -10 38 58 89 120
89 13 0 36 6 51 14 25 12 145 27 257 30 61 2 97 14 92 29 -2 7 -21 25 -43 40
-30 21 -55 29 -100 32 -32 2 -79 11 -103 19 -24 9 -44 16 -45 15 0 0 -12 -8
-25 -17z m-161 -362 c0 -5 -2 -10 -4 -10 -3 0 -8 5 -11 10 -3 6 -1 10 4 10 6
0 11 -4 11 -10z m200 -12 c0 -25 -27 -58 -47 -58 -8 0 -13 3 -11 8 3 4 10 22
17 40 15 36 41 43 41 10z m-280 2 c0 -5 16 -28 36 -50 20 -22 34 -43 31 -47
-10 -9 -95 -5 -117 7 -24 13 -27 62 -4 84 17 18 54 22 54 6z m-1171 -63 c6
-19 25 -43 41 -56 43 -31 39 -45 -12 -37 -52 9 -93 33 -107 63 -13 29 -14 46
-2 39 4 -3 17 1 27 9 29 22 41 18 53 -18z m88 11 c-3 -8 -6 -5 -6 6 -1 11 2
17 5 13 3 -3 4 -12 1 -19z m162 -59 c-25 -16 -32 -9 -13 12 12 13 20 16 22 9
3 -7 -2 -16 -9 -21z m-109 -93 c0 -11 -19 -15 -25 -6 -3 5 1 10 9 10 9 0 16
-2 16 -4z"/>
<path d="M6980 6215 c-18 -22 -40 -104 -30 -110 10 -6 34 43 45 94 7 34 4 38
-15 16z"/>
<path d="M4880 5381 c0 -6 -6 -11 -14 -11 -8 0 -17 -8 -20 -17 -4 -10 -24 -38
-46 -63 -22 -25 -45 -57 -51 -72 -6 -16 -15 -28 -20 -28 -5 0 -9 -13 -9 -28 0
-16 -8 -37 -18 -48 -10 -10 -21 -26 -24 -35 -4 -9 -23 -19 -47 -23 -38 -6 -41
-9 -39 -34 3 -26 2 -27 -48 -27 l-50 0 6 -35 c4 -19 12 -45 18 -57 7 -12 12
-35 12 -52 0 -29 22 -61 42 -61 6 0 6 -6 -2 -15 -9 -11 -9 -15 -1 -15 6 0 17
-11 23 -25 6 -14 16 -25 22 -24 23 3 37 -1 32 -9 -2 -4 0 -14 5 -22 8 -13 10
-13 18 -1 7 11 13 8 27 -14 10 -15 19 -34 20 -41 4 -23 48 -72 77 -86 15 -7
27 -16 27 -20 0 -7 54 -69 106 -122 17 -18 35 -42 38 -54 4 -13 12 -19 22 -15
10 4 12 0 8 -11 -4 -10 6 -26 28 -46 18 -17 33 -34 33 -38 0 -4 9 -20 20 -36
17 -26 20 -27 26 -10 7 17 8 17 8 -3 2 -65 144 -157 269 -174 103 -14 276 9
374 51 107 45 112 50 109 113 -1 20 -6 27 -21 27 -11 0 -20 7 -20 15 0 8 4 15
10 15 5 0 7 7 4 15 -4 9 0 15 10 15 9 0 15 3 15 8 -5 27 3 33 35 27 28 -6 39
-2 67 24 33 30 33 32 15 46 -17 13 -17 15 -4 15 9 0 20 9 23 20 3 11 12 20 20
20 8 0 11 7 8 19 -3 13 3 25 21 36 15 10 28 30 32 51 3 18 9 33 13 32 32 -4
51 5 57 26 4 17 11 22 25 19 15 -4 18 -1 13 11 -3 8 2 23 11 32 11 12 13 20 6
27 -8 8 -15 5 -26 -9 -14 -17 -15 -12 -11 61 4 82 16 151 31 176 23 36 6 90
-22 68 -17 -15 -93 16 -93 38 0 7 -12 18 -27 24 -14 5 -32 17 -39 27 -10 13
-14 14 -27 3 -18 -14 -37 -7 -37 15 0 8 -7 14 -16 14 -11 0 -14 -6 -9 -20 4
-11 2 -20 -4 -20 -6 0 -11 7 -11 15 0 9 -6 18 -14 21 -8 3 -12 13 -9 24 4 16
-6 24 -47 35 -23 7 -40 20 -45 36 -4 10 -13 19 -21 19 -8 0 -12 5 -9 10 3 6 1
10 -4 10 -6 0 -11 6 -11 14 0 7 -11 21 -24 29 -13 9 -29 22 -37 29 -94 90
-142 114 -174 90 -19 -14 -15 -51 8 -69 78 -63 99 -136 55 -188 -22 -25 -27
-26 -133 -26 -60 0 -114 -4 -120 -9 -17 -14 -155 -50 -169 -44 -8 3 -17 1 -20
-5 -7 -11 -53 1 -99 26 -30 16 -127 15 -139 -1 -9 -14 -38 13 -38 35 0 11 -6
18 -12 17 -20 -4 -22 60 -3 89 9 13 31 31 49 38 36 15 53 33 50 53 -1 6 -2 20
-3 30 -2 19 -61 70 -61 53z m891 -301 c9 -8 22 -25 28 -37 6 -13 17 -23 24
-23 14 0 42 -58 32 -68 -3 -4 -14 3 -23 16 -14 18 -20 20 -30 10 -6 -6 -12
-17 -12 -23 0 -10 -54 -59 -87 -78 -18 -11 -53 1 -53 19 0 19 -24 18 -40 -1
-12 -14 -15 -13 -35 5 -23 22 -45 26 -45 9 0 -5 -11 2 -23 17 -21 24 -23 31
-13 57 6 17 36 50 69 75 31 25 57 49 57 54 0 4 9 8 19 8 11 0 22 4 25 9 6 10
78 -23 107 -49z m-861 -145 c0 -12 -29 -3 -34 10 -4 13 -2 14 14 5 11 -6 20
-13 20 -15z m585 -54 c3 -5 1 -12 -4 -15 -5 -3 -11 1 -15 9 -6 16 9 21 19 6z
m-90 -91 c33 0 2 -19 -42 -26 -48 -7 -56 5 -26 38 15 16 18 17 33 3 9 -8 25
-15 35 -15z m232 -10 c2 -22 -27 -35 -72 -31 -48 4 -54 21 -7 21 24 0 47 6 54
15 18 19 23 19 25 -5z m-137 -24 c-14 -14 -24 0 -16 21 6 15 8 15 16 3 6 -9 5
-19 0 -24z m-314 8 c26 -7 33 -24 10 -24 -40 0 -74 13 -69 27 3 8 12 12 20 9
8 -4 26 -9 39 -12z m524 6 c0 -5 -4 -10 -10 -10 -5 0 -10 5 -10 10 0 6 5 10
10 10 6 0 10 -4 10 -10z m-474 -37 c-10 -10 -19 5 -10 18 6 11 8 11 12 0 2 -7
1 -15 -2 -18z m74 17 c0 -5 -11 -10 -25 -10 -14 0 -25 5 -25 10 0 6 11 10 25
10 14 0 25 -4 25 -10z m138 -92 c-8 -24 -118 -34 -125 -11 -5 14 18 20 80 22
34 1 47 -3 45 -11z m-163 -17 c-8 -14 -92 -15 -100 -2 -3 6 17 11 47 13 61 3
62 3 53 -11z m305 -68 c0 -7 -4 -13 -10 -13 -5 0 -10 -6 -10 -12 0 -21 -48
-60 -67 -56 -10 2 -16 8 -13 13 2 6 10 9 17 7 17 -4 17 15 1 21 -9 3 -2 14 17
30 32 27 65 32 65 10z m287 -23 c12 -24 9 -40 -6 -40 -5 0 -11 10 -14 21 -5
19 -8 20 -20 7 -9 -9 -13 -25 -10 -40 4 -20 -1 -30 -21 -43 -21 -14 -31 -15
-61 -5 -29 9 -35 16 -33 33 2 17 11 23 36 25 18 2 36 10 39 18 3 8 11 14 18
14 7 0 15 9 18 19 7 26 39 21 54 -9z m-402 -30 c-5 -8 -11 -8 -17 -2 -6 6 -7
16 -3 22 5 8 11 8 17 2 6 -6 7 -16 3 -22z m-77 5 c46 4 49 -12 6 -30 -26 -11
-41 -12 -48 -5 -14 14 -26 12 -26 -5 0 -15 -26 -20 -54 -9 -37 14 0 52 46 45
9 -1 19 3 23 10 5 7 10 7 14 1 3 -5 21 -8 39 -7z m302 -207 c0 -5 -7 -8 -15
-4 -10 4 -15 -1 -15 -14 0 -14 -7 -20 -24 -20 -13 0 -26 -7 -30 -15 -3 -8 -14
-15 -25 -15 -30 0 -51 -11 -51 -26 0 -8 -2 -14 -4 -14 -2 0 -12 -3 -22 -7 -17
-6 -17 5 1 67 7 22 -39 19 -64 -4 -13 -12 -21 -14 -26 -6 -4 6 -5 12 -4 14 56
41 71 47 109 42 22 -3 40 -1 40 3 0 4 23 9 52 10 28 1 54 4 56 6 7 7 22 -5 22
-17z m37 -132 c0 -19 -5 -33 -9 -30 -11 7 -10 64 1 64 5 0 9 -15 8 -34z"/>
<path d="M5510 4958 c0 -7 5 -20 10 -28 8 -12 10 -11 10 7 0 12 -4 25 -10 28
-5 3 -10 0 -10 -7z"/>
<path d="M6455 5321 c-3 -5 -1 -12 5 -16 5 -3 10 1 10 9 0 18 -6 21 -15 7z"/>
<path d="M4360 5280 c-13 -8 -12 -10 3 -10 9 0 17 5 17 10 0 12 -1 12 -20 0z"/>
<path d="M5895 5260 c-3 -6 1 -13 10 -16 19 -8 30 0 20 15 -8 14 -22 14 -30 1z"/>
<path d="M4266 5252 c-6 -11 22 -87 30 -79 2 1 -3 23 -10 47 -7 25 -16 39 -20
32z"/>
<path d="M6164 5225 c-8 -21 4 -35 32 -35 15 0 24 6 24 15 0 8 -7 15 -15 15
-8 0 -15 5 -15 10 0 15 -20 12 -26 -5z"/>
<path d="M6085 5221 c-6 -11 9 -23 19 -14 9 9 7 23 -3 23 -6 0 -12 -4 -16 -9z"/>
<path d="M6240 5150 c0 -11 5 -20 10 -20 6 0 10 9 10 20 0 11 -4 20 -10 20 -5
0 -10 -9 -10 -20z"/>
<path d="M5900 5146 c0 -8 7 -16 15 -20 10 -4 15 1 15 14 0 11 -7 20 -15 20
-8 0 -15 -6 -15 -14z"/>
<path d="M4376 5121 c-16 -18 -15 -19 17 -39 47 -27 70 -14 41 24 -26 36 -37
39 -58 15z"/>
<path d="M6206 5114 c-8 -20 0 -32 14 -18 5 5 5 15 1 22 -6 11 -10 10 -15 -4z"/>
<path d="M6252 5108 c-14 -14 -16 -38 -3 -38 8 0 23 41 17 47 -1 1 -8 -3 -14
-9z"/>
<path d="M4435 5029 c-11 -4 -15 -8 -9 -8 7 -1 14 -10 17 -21 6 -25 37 -16 37
10 0 22 -18 30 -45 19z"/>
<path d="M6234 4989 c-3 -6 0 -15 7 -20 13 -7 28 5 29 24 0 11 -28 8 -36 -4z"/>
<path d="M6110 4510 c0 -5 7 -10 15 -10 8 0 15 5 15 10 0 6 -7 10 -15 10 -8 0
-15 -4 -15 -10z"/>
<path d="M6020 4360 c0 -5 9 -10 20 -10 11 0 20 5 20 10 0 6 -9 10 -20 10 -11
0 -20 -4 -20 -10z"/>
</g>
</svg>
